<?xml version="1.0" encoding="UTF-8"?><svg id="Laag_2" xmlns="http://www.w3.org/2000/svg" xmlns:xlink="http://www.w3.org/1999/xlink" viewBox="0 0 403.54 77.03"><defs><style>.cls-1{fill:url(#Naamloos_verloop_36);}.cls-1,.cls-2,.cls-3,.cls-4,.cls-5,.cls-6,.cls-7{stroke-width:0px;}.cls-2{fill:url(#Naamloos_verloop_45);}.cls-3{fill:url(#Naamloos_verloop_59);}.cls-4{fill:url(#Naamloos_verloop_52);}.cls-5{fill:url(#Naamloos_verloop_10);}.cls-6{fill:#fdc902;}.cls-7{fill:#004f7c;}</style><linearGradient id="Naamloos_verloop_59" x1="363.84" y1="67.19" x2="363.84" y2="0" gradientUnits="userSpaceOnUse"><stop offset="0" stop-color="#1488c8"/><stop offset="1" stop-color="#52ac32"/></linearGradient><linearGradient id="Naamloos_verloop_45" x1="358.32" y1="85.45" x2="387.77" y2="56" gradientUnits="userSpaceOnUse"><stop offset="0" stop-color="#ea650c"/><stop offset=".69" stop-color="#fdc902"/></linearGradient><linearGradient id="Naamloos_verloop_36" x1="368.07" y1="65.4" x2="387.53" y2="45.94" gradientUnits="userSpaceOnUse"><stop offset="0" stop-color="#ea650c"/><stop offset=".29" stop-color="#fdc902"/><stop offset=".6" stop-color="#fdc902"/><stop offset="1" stop-color="#52ac32"/></linearGradient><linearGradient id="Naamloos_verloop_52" x1="362.79" y1="51.83" x2="362.79" y2="15.37" gradientUnits="userSpaceOnUse"><stop offset=".17" stop-color="#fdc902"/><stop offset="1" stop-color="#52ac32"/></linearGradient><linearGradient id="Naamloos_verloop_10" x1="351.74" y1="63.5" x2="390.53" y2="24.7" gradientUnits="userSpaceOnUse"><stop offset="0" stop-color="#ea650c"/><stop offset=".54" stop-color="#e00a19"/></linearGradient></defs><g id="Design"><rect class="cls-7" x="39.77" y="21.8" width="4.83" height="33.05"/><path class="cls-7" d="m62.21,38.59c0,2.04-.08,3.86-.23,5.43-.15,1.53-.45,2.84-.9,3.87-.44,1-1.08,1.76-1.92,2.27-.85.51-2.02.77-3.5.77-1.26,0-2.4-.16-3.39-.48-.99-.32-1.79-.69-2.36-1.09l-.41-.29-1.28,4.06.22.15c1.99,1.37,4.42,2.07,7.22,2.07,2.51,0,4.53-.41,6.02-1.23,1.5-.82,2.67-1.99,3.47-3.47.79-1.46,1.31-3.24,1.54-5.3.23-2.02.34-4.29.34-6.75v-16.8h-4.83v16.8Z"/><polygon class="cls-7" points="96.89 46.28 77.41 21.8 73.68 21.8 73.68 54.84 78.51 54.84 78.51 30.85 97.72 54.84 101.72 54.84 101.72 21.84 96.89 21.84 96.89 46.28"/><polygon class="cls-7" points="116.14 21.8 107.95 21.8 107.95 54.84 131 54.84 131 47.55 116.14 47.55 116.14 21.8"/><polygon class="cls-7" points="142.77 41.42 154.34 41.42 154.34 34.63 142.77 34.63 142.77 29.08 157.6 29.08 157.6 21.8 134.57 21.8 134.57 54.84 158.01 54.84 158.01 47.55 142.77 47.55 142.77 41.42"/><polygon class="cls-7" points="170.03 41.42 181.6 41.42 181.6 34.63 170.03 34.63 170.03 29.08 184.86 29.08 184.86 21.8 161.83 21.8 161.83 54.84 185.27 54.84 185.27 47.55 170.03 47.55 170.03 41.42"/><rect class="cls-7" x="246.2" y="21.8" width="8.2" height="33.05"/><path class="cls-7" d="m269.05,38.59c0,1.68-.05,3.14-.16,4.36-.1,1.18-.33,2.16-.67,2.9-.33.71-.8,1.25-1.4,1.59-.61.35-1.45.52-2.5.52-1.25,0-2.37-.18-3.31-.52-1.18-.44-1.65-.7-1.83-.85l-.44-.35-1.85,6.89.21.15c1.99,1.37,4.42,2.07,7.22,2.07s5.14-.41,6.85-1.22c1.73-.82,3.06-1.98,3.96-3.46.89-1.46,1.47-3.25,1.73-5.31.26-2.03.39-4.3.39-6.76v-16.8h-8.2v16.8Z"/><polygon class="cls-7" points="302.49 21.8 302.49 40.09 287.97 21.8 281.6 21.8 281.6 54.84 289.8 54.84 289.8 37.04 304.14 54.84 310.69 54.84 310.69 21.8 302.49 21.8"/><polygon class="cls-7" points="228.17 21.8 219.98 21.8 219.98 54.84 243.03 54.84 243.03 47.55 228.17 47.55 228.17 21.8"/><path class="cls-7" d="m209.88,42.72c3.19-2.01,5.31-5.55,5.31-9.59h0c0-5.03-3.28-9.29-7.82-10.77,0,0,0,0-.01,0-.15-.05-.3-.09-.45-.13-.92-.27-1.88-.43-2.89-.43h-14.93v33.05h8.2v-10.38h4.32l6.16,10.38h9.27l-7.16-12.12Zm-7.12-5.54h-5.47v-8.09h5.47c2.24,0,4.05,1.81,4.05,4.05s-1.81,4.05-4.05,4.05Z"/><polygon class="cls-7" points="27.91 21.8 16.39 42.39 4.91 21.8 0 21.8 0 54.84 4.83 54.84 4.83 30.89 14.25 47.63 18.56 47.63 27.94 30.89 27.94 54.84 32.77 54.84 32.77 21.8 27.91 21.8"/><polygon class="cls-3" points="360.02 67.19 365.55 67.19 365.55 67.19 370.14 67.19 375.67 67.19 375.67 67.19 387.9 67.19 387.9 61.66 375.67 61.66 375.67 61.66 370.14 61.66 365.55 61.66 365.55 61.66 360.02 61.66 357.55 61.66 355.4 61.66 349.9 61.66 345.3 61.66 345.3 5.53 349.9 5.53 355.4 5.53 360.02 5.53 360.02 9.84 365.55 9.84 365.55 5.53 365.55 0 360.02 0 355.4 0 349.9 0 345.3 0 339.77 0 339.77 5.53 339.77 61.67 339.77 67.19 345.3 67.19 349.9 67.19 355.4 67.19 360.02 67.19"/><polygon class="cls-2" points="387.9 67.19 387.9 71.5 355.43 71.5 355.43 67.19 349.9 67.19 349.9 71.5 349.9 77.03 355.4 77.03 387.9 77.03 393.43 77.03 393.43 71.5 393.43 67.19 393.43 61.66 387.9 61.66 387.9 67.19"/><polygon class="cls-1" points="393.43 51.83 387.9 51.83 375.67 51.83 370.14 51.83 365.55 51.83 365.55 51.83 360.02 51.83 360.02 57.36 365.55 57.36 365.55 57.36 370.14 57.36 375.67 57.36 375.67 57.36 387.9 57.36 387.9 61.66 393.43 61.66 393.43 57.36 393.43 51.83"/><polygon class="cls-6" points="393.43 51.83 387.9 51.83 375.67 51.83 370.14 51.83 365.55 51.83 365.55 51.83 360.02 51.83 360.02 57.36 365.55 57.36 365.55 57.36 370.14 57.36 375.67 57.36 375.67 57.36 387.9 57.36 387.9 61.66 393.43 61.66 393.43 57.36 393.43 51.83"/><rect class="cls-4" x="360.02" y="15.37" width="5.53" height="36.46"/><polygon class="cls-5" points="398.11 41.99 375.67 41.99 375.67 15.37 375.67 9.84 370.14 9.84 365.55 9.84 360.02 9.84 355.4 9.84 349.9 9.84 349.9 15.37 349.9 61.66 355.43 61.66 355.43 15.37 360.02 15.37 365.55 15.37 370.14 15.37 370.14 41.99 370.14 47.52 375.67 47.52 398.01 47.52 398.01 61.66 393.43 61.66 393.43 67.19 398.11 67.19 399.85 67.19 403.54 67.19 403.54 47.52 403.54 41.99 398.11 41.99"/></g></svg>